<?xml version="1.0" standalone="no"?>
<!DOCTYPE svg PUBLIC "-//W3C//DTD SVG 20010904//EN"
 "http://www.w3.org/TR/2001/REC-SVG-20010904/DTD/svg10.dtd">
<svg version="1.0" xmlns="http://www.w3.org/2000/svg"
 width="1280.000000pt" height="720.000000pt" viewBox="0 0 1280.000000 720.000000"
 preserveAspectRatio="xMidYMid meet">
<metadata>
Created by potrace 1.16, written by Peter Selinger 2001-2019
</metadata>
<g transform="translate(0.000000,720.000000) scale(0.100000,-0.100000)"
fill="#000000" stroke="none">
<path d="M4594 6630 c-32 -12 -64 -59 -64 -91 0 -37 32 -120 81 -214 53 -102
52 -107 -13 -89 -29 7 -100 21 -157 30 -149 23 -473 15 -626 -15 -135 -27
-285 -70 -405 -116 -51 -19 -95 -35 -100 -35 -10 0 -64 139 -86 223 -9 34 -22
98 -28 142 -10 68 -15 80 -32 83 -41 6 -132 -118 -163 -223 -7 -22 -14 -46
-17 -53 -3 -10 -11 -8 -31 6 -16 11 -59 39 -97 62 -80 49 -92 47 -117 -21 -12
-30 -22 -44 -35 -44 -11 0 -71 4 -134 8 -324 24 -722 -74 -1047 -258 -84 -47
-126 -81 -121 -97 2 -6 44 -25 93 -43 121 -43 281 -125 385 -196 89 -61 240
-193 240 -211 0 -6 -32 -40 -72 -77 -75 -69 -158 -173 -158 -197 0 -26 28 -26
95 1 45 18 80 25 110 23 l45 -3 -46 -65 c-153 -219 -266 -462 -303 -655 -7
-33 -14 -66 -17 -74 -3 -8 -31 25 -71 83 -94 139 -145 172 -217 142 -49 -20
-66 -63 -66 -165 0 -131 57 -361 130 -523 l19 -42 -40 -43 c-31 -34 -39 -50
-39 -81 0 -28 -8 -50 -29 -76 -17 -21 -35 -61 -42 -91 -39 -175 150 -468 381
-589 80 -42 135 -57 225 -62 39 -2 91 -6 117 -10 39 -5 55 -2 84 15 35 21 38
21 86 5 107 -35 255 0 301 72 l22 34 139 0 c176 0 370 29 586 86 19 5 7 -12
-51 -70 l-75 -77 -61 17 c-76 21 -128 14 -219 -30 -93 -45 -205 -136 -298
-245 -43 -50 -84 -91 -91 -91 -27 0 -85 -62 -116 -126 -34 -68 -33 -60 -29
-301 2 -61 -1 -140 -4 -175 -13 -116 30 -259 100 -335 19 -20 34 -42 34 -48 0
-22 59 -94 89 -110 37 -18 68 -19 101 -1 22 12 28 10 50 -10 70 -65 147 -60
187 11 21 39 24 40 74 40 68 0 99 33 99 105 0 86 25 159 69 201 22 21 42 47
46 58 3 10 19 24 35 31 62 26 106 95 136 213 13 48 14 68 5 98 -10 32 -8 43
14 90 31 70 41 152 25 218 l-12 51 65 77 c95 114 97 116 148 106 42 -8 43 -9
65 -78 12 -39 39 -128 59 -200 53 -191 101 -283 192 -373 l74 -74 -21 -151
c-12 -84 -24 -155 -27 -159 -2 -5 -15 -8 -28 -8 -12 0 -51 -9 -86 -20 -84 -26
-160 -87 -237 -189 -33 -44 -79 -98 -100 -118 -30 -29 -44 -53 -56 -98 -9 -33
-27 -91 -39 -130 -43 -140 -32 -300 27 -394 15 -23 27 -65 34 -114 26 -197
161 -347 312 -347 117 0 261 111 333 257 22 44 38 64 55 68 13 3 45 25 70 49
26 24 60 46 77 50 42 11 109 84 129 142 18 54 21 110 6 148 -7 19 -4 51 10
118 25 116 27 282 4 357 -9 33 -30 69 -54 95 l-40 43 25 111 c14 61 29 144 33
184 l7 73 80 26 c130 42 241 105 325 185 l75 71 110 26 c61 15 130 29 155 32
25 4 54 8 65 10 19 4 20 -1 21 -198 1 -156 6 -233 23 -337 38 -242 100 -459
157 -557 18 -32 34 -45 62 -53 28 -8 44 -21 64 -54 31 -53 95 -102 152 -117
72 -20 192 -6 287 33 105 43 181 93 283 189 200 186 326 403 351 601 15 117
-36 214 -132 256 -46 19 -158 39 -252 45 l-43 2 -25 85 c-13 47 -51 141 -85
210 -58 118 -67 131 -167 231 -89 88 -120 112 -191 147 -124 61 -208 54 -279
-22 -14 -14 -33 -26 -43 -26 -36 0 -169 -31 -280 -65 -123 -38 -128 -37 -128
26 0 100 -71 352 -154 548 l-35 84 24 29 c23 28 30 44 37 92 2 13 51 49 143
106 77 47 157 98 178 112 l39 26 79 -53 c191 -131 392 -123 590 21 35 25 57
34 87 34 64 0 144 37 230 106 134 107 199 203 187 277 -6 32 -1 49 28 105 49
92 75 162 102 266 22 87 23 90 61 104 103 40 164 111 164 190 0 60 -28 128
-66 162 -43 37 -110 41 -162 10 -18 -11 -37 -20 -42 -20 -17 0 -11 30 12 62
56 79 80 184 57 245 -23 62 -116 123 -186 123 -70 -1 -117 -31 -155 -99 -18
-33 -37 -59 -43 -58 -5 2 -13 41 -16 88 -7 105 -21 148 -60 185 -27 26 -37 29
-97 29 -80 0 -167 -37 -194 -83 -17 -29 -16 -48 8 -177 5 -29 3 -31 -55 -54
-33 -13 -76 -35 -96 -48 -32 -21 -39 -23 -76 -13 -46 13 -46 9 -5 105 16 38
26 79 26 111 0 28 7 66 16 84 23 45 14 172 -19 265 -26 75 -112 252 -155 319
-94 147 -162 203 -231 192 -31 -5 -43 0 -79 29 -57 45 -102 59 -170 52 l-55
-6 -81 63 c-109 84 -177 125 -232 142 -53 16 -70 16 -100 4z m-1434 -262 c17
-89 28 -125 71 -230 10 -26 19 -49 19 -52 0 -3 -30 -19 -67 -37 -92 -42 -114
-51 -140 -54 -22 -3 -104 -35 -198 -76 -27 -12 -76 -40 -109 -63 l-59 -41 -36
45 c-45 57 -119 131 -151 153 -21 15 -23 19 -10 27 23 15 130 11 175 -6 84
-32 85 -32 85 22 1 75 18 182 38 225 l17 39 108 -66 c60 -37 112 -63 116 -58
4 5 13 37 19 71 7 34 21 81 32 106 21 47 59 101 67 93 3 -2 13 -46 23 -98z
m2014 -12 c149 -88 444 -600 471 -818 8 -61 -1 -138 -16 -138 -5 0 -9 12 -9
28 0 71 -54 209 -142 367 -103 185 -185 298 -352 485 -42 46 -76 88 -76 92 0
18 85 7 124 -16z m220 -87 c66 -58 202 -299 257 -456 18 -52 39 -215 26 -203
-3 3 -22 48 -42 100 -56 142 -150 312 -271 487 -35 50 -64 94 -64 97 0 3 13 6
30 6 18 0 42 -11 64 -31z m-2701 -45 c18 -7 23 -70 11 -131 l-6 -30 -46 14
c-56 17 -168 11 -213 -12 -35 -18 -35 -19 -9 -60 38 -62 77 -205 55 -205 -2 0
-23 7 -46 16 -28 12 -37 19 -28 25 7 4 18 5 24 1 6 -4 1 1 -11 11 -29 26 -164
87 -191 87 -12 0 -24 4 -27 9 -3 5 -33 12 -66 16 -32 4 -63 12 -68 18 -5 7
-21 44 -35 82 -13 39 -28 78 -32 87 -9 24 12 31 165 57 69 11 136 23 150 25
36 7 352 -2 373 -10z m1822 -32 c136 -31 221 -59 320 -107 229 -110 401 -266
543 -490 107 -171 129 -408 57 -631 -41 -125 -146 -329 -237 -456 -214 -301
-458 -530 -823 -773 -565 -375 -1176 -595 -1619 -583 l-109 3 -12 57 c-14 70
-50 124 -186 278 -114 129 -308 361 -385 460 -82 105 -244 352 -244 372 0 41
41 222 69 306 16 50 58 146 92 214 117 233 249 408 463 615 218 211 432 361
711 498 278 137 501 209 780 250 136 21 463 13 580 -13z m1712 -888 c48 -14
141 -69 188 -111 142 -127 202 -332 161 -545 -18 -90 -32 -129 -86 -242 l-44
-88 -50 7 c-64 8 -183 54 -266 102 -85 50 -214 180 -267 269 -57 98 -109 242
-128 356 -24 138 -22 145 50 190 135 83 288 105 442 62z m-546 -84 c15 -9 19
-22 19 -68 0 -128 65 -341 142 -470 81 -133 195 -241 326 -307 78 -39 201 -85
229 -85 29 0 43 -20 43 -62 0 -29 -9 -49 -43 -90 -59 -72 -168 -162 -236 -195
-51 -24 -60 -25 -106 -15 -196 41 -412 197 -552 396 -55 78 -153 267 -153 295
0 8 22 58 49 110 55 107 115 271 125 343 5 31 17 58 34 76 15 16 37 41 49 56
23 28 43 32 74 16z m-351 -653 c0 -26 87 -184 145 -262 121 -164 320 -322 478
-381 l49 -17 -24 -19 c-12 -10 -63 -38 -112 -63 -86 -44 -90 -45 -185 -45 -77
0 -107 5 -151 23 -142 58 -271 188 -340 341 -27 59 -48 153 -41 186 2 8 35 60
75 115 40 55 75 108 79 118 7 20 27 23 27 4z m-570 -684 c0 -44 61 -151 111
-197 l46 -41 -11 -43 c-6 -24 -15 -44 -21 -44 -5 0 -34 49 -65 108 -30 60 -70
135 -88 166 -30 53 -31 57 -15 67 30 17 43 12 43 -16z m-3067 -27 c107 -38
260 -167 363 -303 192 -254 244 -533 100 -533 -43 0 -48 7 -29 43 47 92 -77
335 -272 533 -106 107 -194 164 -268 173 -48 6 -52 8 -49 31 9 63 71 86 155
56z m3015 -59 c21 -34 64 -116 95 -182 304 -659 325 -989 76 -1237 -64 -64
-94 -85 -181 -126 -158 -76 -329 -112 -446 -93 -100 16 -174 55 -241 126 -77
83 -109 158 -196 460 -45 157 -98 312 -142 418 -25 59 -44 109 -42 110 2 2 40
18 84 37 123 52 379 180 489 245 113 66 401 258 431 286 11 10 23 19 26 19 4
0 25 -28 47 -63z m-3028 -101 c82 -47 226 -195 304 -313 102 -155 130 -259 85
-317 -26 -33 -78 -35 -172 -6 -88 27 -172 86 -261 182 -175 188 -222 406 -104
478 39 24 75 18 148 -24z m1948 -519 c57 -136 88 -235 76 -247 -18 -18 -50 18
-103 120 -72 139 -87 180 -70 191 8 5 26 9 40 9 23 0 30 -9 57 -73z m-448
-173 c5 -5 -10 -34 -35 -67 -86 -113 -84 -219 7 -322 42 -49 77 -65 139 -65
48 0 55 3 96 45 24 25 45 45 48 45 3 0 5 -25 5 -56 0 -40 -9 -78 -35 -140 -65
-158 -90 -179 -205 -177 -125 2 -244 45 -386 139 -84 55 -188 158 -205 202
-13 34 19 80 141 202 104 104 206 176 278 197 50 13 137 12 152 -3z m2612 -80
c105 -53 214 -151 286 -256 72 -104 173 -356 158 -393 -3 -9 -18 -15 -38 -15
-32 0 -133 -21 -173 -36 -20 -7 -20 -7 -1 14 26 29 10 28 -35 -4 -94 -65 -232
-274 -310 -470 -38 -97 -78 -262 -82 -336 -3 -72 -20 -67 -57 16 -48 107 -141
475 -140 554 1 24 4 21 26 -23 56 -108 129 -140 191 -82 65 59 72 216 13 325
-40 76 -80 112 -124 112 -47 0 -73 -24 -98 -93 l-23 -62 -3 90 c-4 119 14 289
39 372 42 137 112 246 187 294 56 37 102 35 184 -7z m-3202 -330 c52 -107 234
-244 412 -311 184 -69 290 -66 362 11 l39 41 -6 -46 c-7 -52 -48 -153 -75
-182 -51 -57 -191 -87 -319 -69 -216 30 -408 138 -511 286 -37 54 -37 137 0
216 22 47 60 100 72 100 3 0 14 -21 26 -46z m2966 -319 c14 -14 37 -51 52 -83
51 -107 30 -262 -37 -279 -38 -10 -73 17 -104 78 -82 165 -13 386 89 284z
m-2891 -153 c57 -35 121 -64 209 -93 72 -24 233 -35 294 -21 23 5 42 6 42 2 0
-23 -67 -70 -116 -81 -85 -19 -236 -7 -314 26 -116 49 -163 76 -221 132 -67
64 -89 104 -89 164 l0 43 73 -70 c39 -39 95 -85 122 -102z m3901 73 c73 -37
104 -89 104 -173 0 -168 -108 -372 -297 -565 -105 -107 -177 -161 -276 -207
-194 -91 -351 -68 -427 63 -29 49 -31 57 -27 137 8 183 143 504 284 677 63 77
169 103 409 100 168 -2 171 -2 230 -32z m-3886 -227 c126 -70 283 -102 393
-80 54 11 56 7 28 -54 -26 -57 -88 -124 -136 -145 -61 -28 -105 -23 -74 8 5 5
13 35 16 66 5 50 3 58 -19 80 -41 41 -161 62 -208 37 -23 -12 -40 -61 -40
-117 l0 -44 -27 15 c-74 38 -128 138 -144 269 -7 47 -8 98 -5 113 7 26 7 26
79 -43 40 -38 101 -85 137 -105z m1323 -249 c-20 -82 -12 -128 30 -176 63 -72
158 -92 243 -51 52 24 93 78 119 159 9 27 20 51 24 54 12 7 48 -35 68 -80 29
-65 23 -271 -11 -399 -59 -220 -170 -403 -261 -430 -26 -7 -124 52 -105 64 20
12 -54 30 -126 30 -34 0 -106 -9 -159 -20 -205 -42 -259 -21 -311 121 -16 44
-20 157 -8 212 l6 29 22 -21 c50 -47 108 -16 158 86 26 54 33 79 33 129 0 56
-3 66 -29 93 l-29 30 56 69 c51 64 118 122 175 151 29 15 105 30 114 22 4 -3
0 -36 -9 -72z m-322 -225 c36 -44 -16 -220 -76 -260 -27 -18 -28 -18 -47 6
-17 21 -19 33 -13 95 8 80 27 127 63 155 30 24 55 25 73 4z m367 -654 c59 -27
112 -69 112 -89 0 -30 -69 -134 -120 -182 -65 -61 -123 -89 -188 -89 -67 0
-92 11 -149 62 -52 48 -107 154 -118 229 l-7 46 74 -5 c53 -3 98 1 163 17 155
36 176 37 233 11z"/>
<path d="M4725 5749 c-426 -57 -1021 -345 -1465 -708 -349 -285 -630 -645
-670 -856 -11 -57 -10 -72 5 -117 43 -133 196 -292 322 -335 108 -37 304 20
651 189 85 42 116 52 170 55 64 4 71 2 156 -41 49 -25 108 -48 132 -52 108
-16 278 63 544 252 237 169 281 226 305 398 23 162 37 190 170 346 95 111 156
199 193 278 20 45 26 73 27 132 0 71 -3 81 -52 181 -113 231 -252 310 -488
278z m340 -411 c14 -6 25 -17 25 -24 0 -7 -37 -32 -81 -54 -165 -83 -259 -166
-329 -288 -19 -34 -40 -62 -47 -62 -7 0 -15 16 -19 36 -23 122 68 294 188 355
91 47 206 63 263 37z m-1446 -969 c57 -24 102 -66 80 -73 -8 -2 -57 -7 -109
-10 -166 -9 -313 -76 -459 -212 -69 -64 -80 -59 -62 27 12 56 63 140 111 182
39 35 133 84 196 102 65 19 180 12 243 -16z"/>
<path d="M5940 5261 c-88 -27 -160 -101 -160 -166 0 -45 49 -123 134 -212 32
-34 47 -43 73 -43 75 0 175 84 188 158 11 65 -27 172 -77 219 -27 25 -89 53
-115 52 -10 0 -29 -4 -43 -8z"/>
<path d="M4570 3626 c-117 -41 -211 -80 -270 -114 -206 -116 -280 -168 -280
-196 0 -20 57 -188 85 -251 37 -85 52 -90 143 -53 45 19 54 20 66 7 7 -8 32
-68 55 -134 68 -191 75 -205 111 -205 17 0 65 17 108 39 42 21 115 53 161 72
119 48 122 57 76 231 -19 73 -41 153 -48 177 -11 40 -10 45 7 55 10 6 31 21
45 32 25 21 25 23 14 78 -31 148 -112 297 -161 295 -9 0 -60 -15 -112 -33z
m15 -188 c14 -29 25 -59 25 -66 0 -7 -46 -35 -102 -61 -151 -71 -145 -70 -166
-19 -42 97 -44 92 65 147 54 28 111 50 126 50 24 1 31 -6 52 -51z m65 -180
c11 -24 20 -56 20 -71 0 -25 -8 -31 -97 -73 -125 -58 -133 -58 -155 -13 -41
86 -43 83 83 144 63 30 118 55 122 55 4 0 17 -19 27 -42z m74 -222 c13 -41 16
-65 9 -75 -15 -24 -205 -104 -222 -94 -8 5 -23 33 -33 63 -14 43 -15 56 -5 68
18 23 189 102 212 99 15 -1 25 -17 39 -61z"/>
<path d="M7435 5696 c-16 -7 -45 -25 -63 -41 l-33 -27 -27 27 c-15 15 -37 31
-50 36 -35 13 -118 11 -155 -4 -43 -19 -97 -65 -108 -94 -5 -12 -16 -23 -26
-23 -37 0 -93 -22 -123 -47 -79 -66 -89 -164 -29 -271 65 -115 79 -148 89
-216 25 -159 107 -305 209 -373 78 -53 131 -66 239 -61 71 3 100 10 145 31
147 73 246 229 208 330 -25 65 -33 222 -21 409 12 170 11 192 -4 231 -9 24
-27 53 -39 65 -43 39 -153 54 -212 28z"/>
<path d="M9693 5652 c-6 -4 -26 -43 -43 -87 -44 -111 -102 -219 -155 -290 -51
-67 -53 -80 -29 -191 8 -42 13 -78 11 -80 -2 -3 -38 1 -78 7 -102 16 -312 6
-419 -21 -153 -37 -238 -71 -347 -136 l-108 -65 -117 -2 -116 -2 -109 -55
c-87 -44 -123 -69 -184 -130 -116 -114 -183 -270 -196 -450 -4 -71 -2 -95 17
-150 12 -35 31 -77 42 -93 l21 -29 -60 -151 c-33 -84 -70 -183 -81 -222 -11
-38 -39 -132 -61 -208 -58 -196 -73 -291 -73 -491 -2 -280 27 -437 112 -609
102 -203 249 -322 435 -348 86 -12 233 -6 285 12 17 6 33 9 36 6 3 -2 21 -51
40 -108 20 -56 55 -144 78 -194 139 -298 243 -394 446 -414 172 -16 398 17
496 74 61 36 123 101 146 153 19 43 21 67 22 319 0 149 4 274 7 277 3 4 48 -8
100 -25 74 -25 112 -32 179 -33 77 -1 91 2 152 32 76 37 116 79 189 196 64
105 99 191 154 382 25 88 69 211 96 274 77 176 91 223 92 322 0 78 -3 93 -31
150 -51 100 -93 139 -233 212 -53 28 -83 49 -80 58 40 138 44 167 44 338 0
145 -3 189 -21 255 -11 44 -18 83 -15 87 11 19 113 62 199 83 51 13 149 29
219 36 104 10 128 16 136 31 6 12 6 25 -1 37 -9 18 -141 130 -177 149 -16 9
-16 12 1 38 32 51 242 250 343 327 54 40 151 106 216 146 157 98 165 115 78
170 -127 82 -343 155 -556 187 -126 19 -449 26 -532 11 -43 -7 -43 -7 -43 22
0 20 -6 32 -19 36 -25 8 -176 -29 -269 -66 -40 -16 -76 -29 -80 -29 -4 0 -13
22 -19 49 -13 54 -65 165 -90 194 -17 18 -31 21 -50 9z m78 -267 c14 -70 19
-80 39 -83 13 -2 40 5 59 16 46 26 250 96 258 89 3 -3 -7 -48 -22 -99 -52
-175 -57 -167 110 -160 69 3 125 1 125 -4 -1 -21 -31 -139 -39 -148 -5 -6 -21
-32 -35 -58 -25 -44 -50 -75 -88 -106 -14 -11 -25 -2 -79 65 -98 121 -196 220
-284 285 -94 71 -118 84 -168 93 -20 4 -39 10 -41 14 -2 3 12 34 33 68 20 33
47 84 61 113 l24 51 15 -28 c8 -15 23 -64 32 -108z m1014 -37 c69 -15 71 -21
34 -118 -44 -120 -46 -122 -124 -138 -89 -17 -240 -73 -240 -89 0 -6 -3 -15
-7 -19 -5 -4 -8 -2 -8 4 0 7 -9 12 -20 12 -25 0 -26 23 -5 100 8 30 15 63 15
72 0 32 -43 48 -152 56 l-104 7 18 62 c18 60 20 62 56 66 78 10 478 -2 537
-15z m-2240 -649 c198 -47 394 -134 583 -259 65 -43 140 -98 167 -123 l50 -45
0 -109 c0 -92 -3 -113 -20 -138 -30 -46 -48 -88 -46 -110 2 -17 0 -17 -8 -5
-6 8 -11 10 -11 4 0 -7 -20 -33 -44 -60 -24 -26 -42 -53 -39 -59 2 -7 -3 -15
-11 -18 -9 -4 -16 -2 -16 3 0 5 -7 7 -16 3 -13 -5 -13 -8 -2 -15 10 -7 8 -8
-7 -7 -11 1 -33 -3 -48 -9 -16 -7 -36 -12 -45 -13 -11 -1 -9 -3 6 -7 13 -4
-22 -7 -78 -7 -56 0 -91 3 -78 7 13 3 16 6 8 7 -21 1 -124 45 -128 54 -2 4
-16 7 -31 7 -14 0 -35 6 -46 13 -39 27 -86 37 -146 30 -59 -6 -59 -6 -59 -39
0 -18 -3 -39 -6 -48 -8 -22 -37 -20 -54 4 -8 11 -20 20 -27 20 -18 0 -17 -59
1 -66 8 -3 17 -12 20 -19 3 -10 -5 -8 -27 5 -18 11 -40 20 -49 20 -10 0 -18 5
-18 10 0 6 -10 11 -22 11 -20 1 -21 2 -3 6 10 3 29 12 42 20 21 14 23 23 23
99 0 49 4 84 10 84 6 0 10 -4 10 -9 0 -5 11 -8 25 -7 35 2 25 20 -13 24 -18 2
-32 7 -32 11 0 17 -55 31 -125 31 l-75 0 0 -30 c0 -28 -2 -30 -40 -30 -22 0
-40 -4 -40 -10 0 -5 -9 -10 -20 -10 -11 0 -20 5 -20 10 0 6 -7 10 -15 10 -8 0
-15 -6 -15 -12 0 -9 -3 -8 -10 2 -5 8 -12 11 -16 7 -4 -3 -1 -13 6 -22 24 -29
3 -25 -27 5 -22 22 -29 38 -25 55 2 14 8 25 13 25 5 0 9 17 9 38 0 26 -6 42
-20 52 -21 15 -28 50 -10 50 6 0 10 14 10 30 0 28 2 30 40 30 l40 0 0 -60 c0
-47 3 -60 15 -60 8 0 15 -7 15 -15 0 -8 8 -15 19 -15 19 0 31 25 31 68 0 14 6
22 18 22 15 1 15 2 1 13 -9 7 -22 23 -29 37 -7 14 -26 41 -41 60 -15 19 -32
51 -36 70 -8 30 -14 35 -40 38 -31 3 -31 4 -21 35 29 85 157 220 258 272 110
57 201 66 335 34z"/>
</g>
</svg>
